<?xml version="1.0" encoding="utf-8"?><!DOCTYPE svg PUBLIC "-//W3C//DTD SVG 1.1//EN" "http://www.w3.org/Graphics/SVG/1.1/DTD/svg11.dtd"><svg xmlns="http://www.w3.org/2000/svg" xmlns:xlink="http://www.w3.org/1999/xlink"><symbol viewBox="0 0 24 24" id="calendar" xmlns="http://www.w3.org/2000/svg"><path d="M20 20h-4v-4h4v4zm-6-10h-4v4h4v-4zm6 0h-4v4h4v-4zM8 16H4v4h4v-4zm6 0h-4v4h4v-4zm-6-6H4v4h4v-4zm16-8v22H0V2h3v1c0 1.103.897 2 2 2s2-.897 2-2V2h10v1c0 1.103.897 2 2 2s2-.897 2-2V2h3zm-2 6H2v14h20V8zm-2-7a1 1 0 10-2 0v2a1 1 0 102 0V1zM6 3a1 1 0 11-2 0V1a1 1 0 112 0v2z"/></symbol><symbol viewBox="0 0 24 24" id="case" xmlns="http://www.w3.org/2000/svg"><path d="M0 7v15h24V7H0zm22 13H2v-6h6v-2H2V9h20v3h-6v2h6v6zM9 4.5a.5.5 0 01.5-.5h5a.5.5 0 01.5.5V6h2V4a2 2 0 00-2-2H9a2 2 0 00-2 2v2h2V4.5zm5 6.5h-4v4h4v-4z"/></symbol><symbol viewBox="0 0 24 24" id="earth" xmlns="http://www.w3.org/2000/svg"><path d="M13.144 8.171c-.035-.066.342-.102.409-.102.074.009-.196.452-.409.102zm-2.152-3.072l.108-.031c.064.055-.072.095-.051.136.086.155.021.248.008.332-.014.085-.104.048-.149.093-.053.066.258.075.262.085.011.033-.375.089-.304.171.096.136.824-.195.708-.176.225-.113.029-.125-.097-.19-.043-.215-.079-.547-.213-.68l.088-.102c-.206-.299-.36.362-.36.362zM24 12c0 6.627-5.373 12-12 12-6.628 0-12-5.373-12-12S5.372 0 12 0c6.627 0 12 5.373 12 12zm-8.31-5.371c-.006-.146-.19-.284-.382-.031-.135.174-.111.439-.184.557-.104.175.567.339.567.174.025-.277.732-.063.87-.025.248.069.643-.226.211-.381-.355-.13-.542-.269-.574-.523 0 0 .188-.176.106-.166-.218.027-.614.786-.614.395zM21.986 12c0-1.035-.177-2.08-.357-2.632a.611.611 0 00-.359-.378c-.256-.1-1.337.597-1.5.254-.107-.229-.324.146-.572.008-.12-.066-.454-.515-.605-.46-.309.111.474.964.688 1.076.201-.152.852-.465.992-.038.268.804-.737 1.685-1.251 2.149-.768.694-.624-.449-1.147-.852-.275-.211-.272-.66-.55-.815-.124-.07-.693-.725-.688-.813l-.017.166c-.094.071-.294-.268-.315-.321 0 .295.48.765.639 1.001.271.405.416.995.748 1.326.178.178.858.914 1.035.898.193-.017.803-.458.911-.433.644.152-1.516 3.205-1.721 3.583-.169.317.138 1.101.113 1.476-.029.433-.37.573-.693.809-.346.253-.265.745-.556.925-.517.318-.889 1.353-1.623 1.348-.216-.001-1.14.36-1.261.007-.094-.256-.22-.45-.353-.703-.13-.248-.015-.505-.173-.724-.109-.152-.475-.497-.508-.677-.002-.155.117-.626.28-.708.229-.117.044-.458.016-.656-.048-.354-.267-.646-.53-.851-.389-.299-.188-.537-.097-.964 0-.204-.124-.472-.398-.392-.564.164-.393-.44-.804-.413-.296.021-.538.209-.813.292-.346.104-.7-.082-1.042-.125-1.407-.178-1.866-1.786-1.499-2.946.037-.19-.114-.542-.048-.689.158-.352.48-.747.762-1.014.158-.15.361-.112.547-.229.287-.181.291-.553.572-.781.4-.325.946-.318 1.468-.388.278-.037 1.336-.266 1.503-.06 0 .038.191.604-.019.572.433.023 1.05.749 1.461.579.211-.088.134-.736.567-.423.262.188 1.436.272 1.68.069.15-.124.234-.93.052-1.021.116.115-.611.124-.679.098-.12-.044-.232.114-.425.025.116.055-.646-.354-.218-.667-.179.131-.346-.037-.539.107-.133.108.062.18-.128.274-.302.153-.53-.525-.644-.602-.116-.076-1.014-.706-.77-.295l.789.785c-.039.025-.207-.286-.207-.059.053-.135.02.579-.104.347-.055-.089.09-.139.006-.268 0-.085-.228-.168-.272-.226-.125-.155-.457-.497-.637-.579-.05-.023-.764.087-.824.11a1.78 1.78 0 00-.179.311 2.02 2.02 0 00-.419.214l-.157.353c-.068.061-.765.291-.769.3.029-.075-.487-.171-.453-.321.038-.165.213-.68.168-.868-.048-.197 1.074.284 1.146-.235.029-.225.046-.487-.313-.525.068.008.695-.246.799-.36.146-.168.481-.442.724-.442.284 0 .223-.413.354-.615.131.053-.07.376.087.507-.01-.103.445.057.489.033.104-.054.684-.022.594-.294-.1-.277.051-.195.181-.253-.022.009.34-.619.402-.413-.043-.212-.421.074-.553.063-.305-.024-.176-.52-.061-.665.089-.115-.243-.256-.247-.036-.006.329-.312.627-.241 1.064.108.659-.735-.159-.809-.114-.28.17-.509-.214-.364-.444.148-.235.505-.224.652-.476.104-.178.225-.385.385-.52.535-.449.683-.09 1.216-.041.521.048.176.124.104.324-.069.19.286.258.409.099a2.65 2.65 0 00.298-.494c.089-.222.901-.197.334-.536-.374-.223-2.004-.672-3.096-.672-.236 0-.401.263-.581.412-.356.295-1.268.874-1.775.698-.519-.179-1.63.66-1.808.666-.065.004.004-.634.358-.681-.153.023 1.247-.707 1.209-.859-.046-.18-2.799.822-2.676 1.023.059.092.299.092-.016.294-.18.109-.372.801-.541.801-.505.221-.537-.435-1.099.409l-.894.36a9.96 9.96 0 00-2.58 5.183c-.013.079.334.226.379.28.112.134.112.712.167.901.138.478.479.744.74 1.179.154.259.41.914.329 1.186.108-.178 1.07.815 1.246 1.022.414.487.733 1.077.061 1.559-.217.156.33 1.129.048 1.368l-.361.093c-.356.219-.195.756.021.982a9.96 9.96 0 007.22 3.087c5.517 0 9.989-4.472 9.989-9.989zM10.479 5.643c.125-.055.293-.053.311-.22.015-.148.044-.046.08-.1.035-.053-.067-.138-.11-.146-.064-.014-.108.069-.149.104l-.072.019-.068.087.008.048-.087.106c-.085.084.002.139.087.102z"/></symbol><symbol viewBox="0 0 24 24" id="education" xmlns="http://www.w3.org/2000/svg"><path d="M20 12.875v5.068C20 20.697 14.211 22 11 22c-3.052 0-9-1.392-9-4.057v-6.294l9 4.863 9-3.637zM11.917 2L-1 7.75l12 6.5 11-4.417V17h2V8.75L11.917 2zM25 22h-4c.578-1 1-2.5 1-4h2c0 1.516.391 2.859 1 4z"/></symbol><symbol viewBox="0 0 24 24" id="folder" xmlns="http://www.w3.org/2000/svg"><path d="M1.979 8L1 2h6.972c1.265 1.583 1.327 2 3.306 2H23l-.96 4H20l.469-2h-9.191C8.952 6 8.112 5.388 7 4H3.306L4 8H1.979zM24 10l-2 12H2L0 10h6.278l2.308-3 3.9 3h1.97l-1.429-1.097L14.492 7l3.9 3H24zm-2.331 2H2.331l1.385 8h16.568l1.385-8z"/></symbol><symbol viewBox="0 0 24 24" id="home" xmlns="http://www.w3.org/2000/svg"><path d="M21 13v10h-6v-6H9v6H3V13H0L12 1l12 12h-3zm-1-5.907V2h-3v2.093l3 3z"/></symbol><symbol viewBox="0 0 24 24" id="insta" xmlns="http://www.w3.org/2000/svg"><path d="M12 2.163c3.204 0 3.584.012 4.85.07 3.252.148 4.771 1.691 4.919 4.919.058 1.265.069 1.645.069 4.849 0 3.205-.012 3.584-.069 4.849-.149 3.225-1.664 4.771-4.919 4.919-1.266.058-1.644.07-4.85.07-3.204 0-3.584-.012-4.849-.07-3.26-.149-4.771-1.699-4.919-4.92-.058-1.265-.07-1.644-.07-4.849 0-3.204.013-3.583.07-4.849.149-3.227 1.664-4.771 4.919-4.919 1.266-.057 1.645-.069 4.849-.069zM12 0C8.741 0 8.333.014 7.053.072 2.695.272.273 2.69.073 7.052.014 8.333 0 8.741 0 12c0 3.259.014 3.668.072 4.948.2 4.358 2.618 6.78 6.98 6.98C8.333 23.986 8.741 24 12 24c3.259 0 3.668-.014 4.948-.072 4.354-.2 6.782-2.618 6.979-6.98.059-1.28.073-1.689.073-4.948 0-3.259-.014-3.667-.072-4.947-.196-4.354-2.617-6.78-6.979-6.98C15.668.014 15.259 0 12 0zm0 5.838a6.162 6.162 0 100 12.324 6.162 6.162 0 000-12.324zM12 16a4 4 0 110-8 4 4 0 010 8zm6.406-11.845a1.44 1.44 0 100 2.881 1.44 1.44 0 000-2.881z"/></symbol><symbol viewBox="0 0 24 24" id="linkedin" xmlns="http://www.w3.org/2000/svg"><path d="M19 0H5a5 5 0 00-5 5v14a5 5 0 005 5h14a5 5 0 005-5V5a5 5 0 00-5-5zM8 19H5V8h3v11zM6.5 6.732c-.966 0-1.75-.79-1.75-1.764s.784-1.764 1.75-1.764 1.75.79 1.75 1.764-.783 1.764-1.75 1.764zM20 19h-3v-5.604c0-3.368-4-3.113-4 0V19h-3V8h3v1.765c1.396-2.586 7-2.777 7 2.476V19z"/></symbol><symbol viewBox="0 0 24 24" id="message" xmlns="http://www.w3.org/2000/svg"><path d="M12 12.713L.015 3h23.971L12 12.713zm-5.425-1.822L0 5.562v12.501l6.575-7.172zm10.85 0L24 18.063V5.562l-6.575 5.329zm-1.557 1.261L12 15.287l-3.868-3.135L.022 21h23.956l-8.11-8.848z"/></symbol><symbol viewBox="0 0 24 24" id="phone" xmlns="http://www.w3.org/2000/svg"><path d="M20 22.621l-3.521-6.795a618.8 618.8 0 01-2.064 1.011c-2.24 1.086-6.799-7.82-4.609-8.994l2.083-1.026L8.396 0 6.29 1.039c-7.202 3.755 4.233 25.982 11.6 22.615.121-.055 2.102-1.029 2.11-1.033z"/></symbol><symbol viewBox="0 0 24 24" id="pinterest" xmlns="http://www.w3.org/2000/svg"><path d="M12 0C5.373 0 0 5.372 0 12c0 5.084 3.163 9.426 7.627 11.174-.105-.949-.2-2.405.042-3.441.218-.937 1.407-5.965 1.407-5.965s-.359-.719-.359-1.782c0-1.668.967-2.914 2.171-2.914 1.023 0 1.518.769 1.518 1.69 0 1.029-.655 2.568-.994 3.995-.283 1.194.599 2.169 1.777 2.169 2.133 0 3.772-2.249 3.772-5.495 0-2.873-2.064-4.882-5.012-4.882-3.414 0-5.418 2.561-5.418 5.207 0 1.031.397 2.138.893 2.738a.36.36 0 01.083.345l-.333 1.36c-.053.22-.174.267-.402.161-1.499-.698-2.436-2.889-2.436-4.649 0-3.785 2.75-7.262 7.929-7.262 4.163 0 7.398 2.967 7.398 6.931 0 4.136-2.607 7.464-6.227 7.464-1.216 0-2.359-.631-2.75-1.378l-.748 2.853c-.271 1.043-1.002 2.35-1.492 3.146C9.57 23.812 10.763 24 12 24c6.627 0 12-5.373 12-12 0-6.628-5.373-12-12-12z" fill-rule="evenodd" clip-rule="evenodd"/></symbol><symbol fill-rule="evenodd" clip-rule="evenodd" stroke-linejoin="round" stroke-miterlimit="1.414" viewBox="0 0 24 24" id="telega" xmlns="http://www.w3.org/2000/svg"><path d="M12 0C5.374 0 0 5.372 0 12c0 6.627 5.374 12 12 12 6.627 0 12-5.373 12-12 0-6.628-5.373-12-12-12zm3.224 17.871c.188.133.43.166.646.085a.678.678 0 00.422-.491c.507-2.382 1.737-8.412 2.198-10.578a.457.457 0 00-.151-.443.47.47 0 00-.465-.082c-2.446.906-9.979 3.732-13.058 4.871a.484.484 0 00-.316.467.483.483 0 00.346.445c1.381.413 3.193.988 3.193.988s.847 2.558 1.288 3.858a.512.512 0 00.352.336.505.505 0 00.474-.121l1.805-1.704s2.084 1.527 3.266 2.369zm-6.423-5.062l.98 3.231.218-2.046 5.941-5.358a.162.162 0 00.019-.22.165.165 0 00-.219-.037l-6.939 4.43z"/></symbol><symbol viewBox="0 0 24 24" id="twi" xmlns="http://www.w3.org/2000/svg"><path d="M24 4.557a9.83 9.83 0 01-2.828.775 4.932 4.932 0 002.165-2.724 9.864 9.864 0 01-3.127 1.195 4.916 4.916 0 00-3.594-1.555c-3.179 0-5.515 2.966-4.797 6.045A13.978 13.978 0 011.671 3.149a4.93 4.93 0 001.523 6.574 4.903 4.903 0 01-2.229-.616c-.054 2.281 1.581 4.415 3.949 4.89a4.935 4.935 0 01-2.224.084 4.928 4.928 0 004.6 3.419A9.9 9.9 0 010 19.54a13.94 13.94 0 007.548 2.212c9.142 0 14.307-7.721 13.995-14.646A10.025 10.025 0 0024 4.557z"/></symbol></svg>